<?xml version="1.0" encoding="utf-8"?>
<!-- Generator: Adobe Illustrator 16.0.3, SVG Export Plug-In . SVG Version: 6.00 Build 0)  -->
<!DOCTYPE svg PUBLIC "-//W3C//DTD SVG 1.1//EN" "http://www.w3.org/Graphics/SVG/1.1/DTD/svg11.dtd">
<svg version="1.1" id="Capa_1" focusable="false" xmlns="http://www.w3.org/2000/svg" xmlns:xlink="http://www.w3.org/1999/xlink"
	 x="0px" y="0px" width="2777.951px" height="2777.949px" viewBox="0 0 2777.951 2777.949"
	 enable-background="new 0 0 2777.951 2777.949" xml:space="preserve">
<path fill="#FFFFFF" d="M2240.265,526.833c-227.336-227.878-530.09-353.212-851.833-353.212
	c-664.104,0-1204.502,540.398-1204.502,1204.502c0,212.145,55.342,419.405,160.601,602.251l-170.909,623.954l638.604-167.654
	c175.792,96.035,373.829,146.494,575.665,146.494h0.542c663.562,0,1215.896-540.398,1215.896-1204.502
	C2604.328,1056.923,2467.601,754.712,2240.265,526.833L2240.265,526.833z M1388.432,2380.247
	c-180.132,0-356.467-48.288-510.014-139.44l-36.353-21.702l-378.713,99.29l100.918-369.489l-23.873-37.979
	c-100.375-159.516-153.004-343.446-153.004-532.803c0-551.792,449.246-1001.038,1001.581-1001.038
	c267.486,0,518.695,104.173,707.509,293.529c188.814,189.356,304.924,440.565,304.381,708.052
	C2400.865,1931.001,1940.224,2380.247,1388.432,2380.247z M1937.511,1630.418c-29.841-15.192-177.962-87.896-205.633-97.663
	c-27.672-10.309-47.746-15.191-67.821,15.192s-77.587,97.662-95.492,118.279c-17.362,20.075-35.267,22.788-65.108,7.597
	c-176.877-88.438-292.986-157.888-409.639-358.096c-30.927-53.172,30.926-49.374,88.438-164.398
	c9.767-20.074,4.883-37.437-2.713-52.629c-7.596-15.191-67.821-163.313-92.779-223.538c-24.415-58.598-49.374-50.459-67.821-51.544
	c-17.361-1.085-37.437-1.085-57.512-1.085s-52.629,7.596-80.301,37.438c-27.671,30.384-105.258,103.088-105.258,251.209
	s107.971,291.359,122.62,311.434c15.192,20.075,212.145,323.914,514.355,454.673c190.983,82.471,265.858,89.523,361.351,75.417
	c58.055-8.681,177.962-72.704,202.92-143.238c24.959-70.533,24.959-130.759,17.362-143.237
	C1987.428,1652.663,1967.353,1645.068,1937.511,1630.418z"/>
</svg>
